<svg xmlns="http://www.w3.org/2000/svg" xmlns:xlink="http://www.w3.org/1999/xlink" version="1.1" x="0px" y="0px" viewBox="0 0 1000 1000" enable-background="new 0 0 1000 1000" xml:space="preserve">
<metadata> Svg Vector Icons : http://www.onlinewebfonts.com/icon </metadata>
    <g><g transform="translate(0.000000,511.000000) scale(0.100000,-0.100000)"><path d="M1989.9,4786.1c-409.6-385.8-876.3-1100.2-1124-1733.6C518.2,2181,451.5,1252.3,684.9,566.4C751.6,361.6,880.2,80.6,970.7-52.7c314.3-495.3,943-971.6,1614.5-1228.8l271.5-104.8v-766.8c0-485.8,23.8-852.5,66.7-1004.9c223.9-847.7,900.1-1462.2,1762.2-1605c1057.3-176.2,2105.1,528.7,2390.8,1605c42.9,152.4,66.7,519.2,66.7,1004.9v766.8l228.6,85.7C8057.5-1043.3,8710-552.8,9029.1-52.7c90.5,133.3,219.1,414.3,285.8,619.2c247.7,719.1,157.2,1705-242.9,2633.7C8757.7,3933.6,7938.5,5010,7695.6,5010c-257.2,0-471.5-290.5-366.7-490.5c28.6-57.2,204.8-285.8,390.5-509.6c400.1-485.8,762-1185.9,904.9-1762.2c152.4-595.3,114.3-1247.8-90.5-1686c-195.3-414.4-547.7-762.1-1014.4-995.4L7166.9-610L7143.1,776c-23.8,1385.9-23.8,1385.9-138.1,1476.4c-142.9,119.1-295.3,114.3-452.5-9.5l-123.8-95.3V242.5c0-1043-19.1-1900.3-38.1-1900.3c-23.8,0-166.7,42.9-323.8,95.3c-576.3,200-1557.4,200-2133.7,0c-157.2-52.4-300.1-95.3-323.9-95.3c-19,0-38.1,857.3-38.1,1900.3v1905.1l-123.8,95.3c-157.2,123.8-309.6,128.6-452.5,9.5c-114.3-90.5-114.3-90.5-138.1-1476.4L2832.9-610L2490-438.5c-462,233.4-833.5,590.6-1024,1000.2c-204.8,438.2-242.9,1090.6-90.5,1686c142.9,576.3,504.8,1276.4,904.9,1762.2c185.7,223.9,362,452.5,390.6,509.6c104.8,200-109.6,490.5-366.7,490.5C2266.1,5010,2123.2,4910,1989.9,4786.1z M5909.6-2272.1c147.7-57.1,328.6-157.2,395.3-219.1c109.5-100,123.8-138.1,95.3-319.1c-66.7-452.5-333.4-843-723.9-1071.6c-300.1-176.2-895.4-214.3-1209.7-71.4c-276.2,119.1-590.6,404.8-709.6,633.4c-133.3,266.7-204.8,633.5-142.9,752.5c61.9,114.3,481,323.8,766.8,385.8C4747.5-2105.5,5604.8-2157.8,5909.6-2272.1z"/></g></g>
</svg>
