<svg width="508" height="437" xmlns="http://www.w3.org/2000/svg" preserveAspectRatio="xMidYMid meet">

    <g>
        <title>background</title>
        <rect fill="none" id="canvas_background" height="402" width="582" y="-1" x="-1"/>
    </g>
    <g>
        <title>Layer 1</title>
        <path id="svg_2" d="m198.138986,86.323804c-32.4,12.4 -58.600001,22.7 -58.400001,22.9c0.2,0.2 26.7,-8.1 58.900001,-18.6l58.600001,-19l62.800001,20.4c34.500001,11.2 62.900001,20.2 63.000001,20.1c0.3,-0.2 -122.600002,-47.500001 -125.200002,-48.200001c-0.5,-0.1 -27.4,9.9 -59.700001,22.4z"/>
        <path id="svg_3" d="m294.038987,138.223805c-0.4,0.3 -0.7,2.5 -0.7,4.8c0,3.9 -0.2,4.3 -3.1,4.9c-2.4,0.5 -3,1 -2.7,2.8c0.3,2.5 2.6,3.3 6.4,2.4c2.1,-0.6 2.4,-1.2 2.4,-5.7c0,-4.6 0.2,-5 2.3,-4.9c5.5,0.5 6.8,-1.4 1.7,-2.5c-1.6,-0.4 -3.2,-1.1 -3.5,-1.6c-0.7,-1.1 -1.9,-1.2 -2.8,-0.2z"/>
        <path id="svg_4" d="m218.338986,149.023805c-0.9,1 -1.1,6.4 -0.8,19.7c0.3,16.7 0.5,18.7 2.6,23c7,14.2 24.2,24.3 33,19.4c2,-1.1 2.9,-1 6.3,0.7c5.9,2.9 17.8,2.8 24.3,-0.3c6.9,-3.3 26.8,-26.2 25.1,-29c-0.3,-0.6 -3.7,-2.6 -7.4,-4.4c-7.3,-3.7 -14.4,-8.7 -20.3,-14.4c-3.2,-3 -3.8,-4.3 -3.8,-7.8c0,-2.6 -0.7,-5.1 -1.9,-6.5l-1.8,-2.3l-8.9,1.7c-10.9,2.1 -25.5,2.2 -34.900001,0.2c-8.7,-1.9 -10,-1.9 -11.5,0zm13.5,4c4.4,0.8 11.4,1.4 15.5,1.4c4.1,0 11.1,-0.6 15.5,-1.4c4.4,-0.8 8.6,-1.5 9.4,-1.5c1.2,0 1.3,2.8 0.7,17.2c-0.8,18.7 -1.6,22.2 -7.2,28.7c-4.4,5.2 -14,11.1 -18.2,11.1c-5.1,0 -11.9,-3.6 -17.9,-9.6c-6.7,-6.7 -8,-11.2 -8.8,-31.7c-0.8,-18.1 -2,-16.6 11,-14.2zm58.300001,31.3c2.1,1.4 3.2,6.9 1.6,8.2c-1,0.9 -2.3,0.6 -5.6,-1.2c-4.9,-2.7 -5.4,-4.7 -1.8,-6.5c2.9,-1.5 4,-1.6 5.8,-0.5zm-16,13.7c1.4,3.1 1.5,8.4 0.2,10.5c-0.5,0.8 -1,1.2 -1.2,1c-0.2,-0.3 -0.9,-1.5 -1.5,-2.8c-0.7,-1.2 -1.8,-3 -2.4,-4c-0.9,-1.5 -0.8,-2.4 0.6,-4.5c2.2,-3.4 2.9,-3.4 4.3,-0.2z"/>
        <path id="svg_5" d="m229.938986,165.723805c-4.6,3.9 -1.8,6.8 6.6,6.8c4.8,0 5.3,-1 2.5,-5.1c-2.8,-4.2 -5.6,-4.7 -9.1,-1.7z"/>
        <path id="svg_6" d="m255.438987,166.123805c-1.2,1.5 -2.1,3.5 -2.1,4.5c0,1.6 0.8,1.9 4.6,1.9c8.1,0 10.7,-3.1 5.8,-6.9c-3.6,-2.8 -5.8,-2.6 -8.3,0.5z"/>
        <path id="svg_7" d="m233.838987,189.723806c0.4,1.3 2.3,3.8 4.2,5.5c3,2.7 4.4,3.3 8.3,3.3c5.3,0 10.5,-2.9 12.9,-7.2c2,-3.6 0.9,-4.4 -3.3,-2.4c-4.2,2 -11.7,2 -17.1,0.1c-5.3,-1.9 -5.7,-1.9 -5,0.7z"/>
        <path id="svg_8" d="m220.238986,216.323806l-5.4,3.8l-0.5,6.4l-0.5,6.5l-3.3,0.3c-5.8,0.6 -5,6.2 0.9,6.2c4.6,0 5.9,-2.2 5.9,-10.5l0,-7.3l4.7,-3c2.6,-1.7 5.1,-2.8 5.6,-2.3c0.5,0.5 0.7,2.6 0.5,4.7c-0.3,3.6 -0.6,3.9 -3.8,4.4c-2.7,0.4 -3.5,1 -3.5,2.5c0,1.6 0.8,2.1 4.4,2.3c5.4,0.4 6.1,-0.5 6.1,-8.5c0,-6.2 -1.5,-9.3 -4.4,-9.3c-0.7,0 -3.7,1.7 -6.7,3.8z"/>
        <path id="svg_22" d="m131.338985,308.723808c0.3,0.3 28.8,13.9 63.400001,30.2l62.900001,29.6l58.900001,-29.6c32.4,-16.3 58.700001,-29.8 58.500001,-30c-0.2,-0.2 -26.7,11.3 -59.000001,25.6l-58.600001,25.9l-61.800001,-25.6c-68.300001,-28.2 -65.000001,-26.8 -64.300001,-26.1z"/>
        <line stroke-linecap="null" stroke-linejoin="null" id="svg_33" y2="218.305081" x2="190.610174" y1="229.491521" x1="148.576275" fill-opacity="null" stroke-opacity="null" stroke-width="null" stroke="null" fill="none"/>
        <line stroke-linecap="null" stroke-linejoin="null" id="svg_34" y2="198.983046" x2="158.0678" y1="199.322029" x1="158.0678" fill-opacity="null" stroke-opacity="null" stroke-width="null" stroke="null" fill="none"/>
        <line stroke="null" stroke-linecap="null" stroke-linejoin="null" id="svg_35" y2="213.220335" x2="66.440682" y1="176.949148" x1="0.338985" fill-opacity="null" stroke-opacity="null" stroke-width="NaN" fill="none"/>
        <ellipse ry="0.169492" rx="0.508475" id="svg_36" cy="194.067792" cx="74.508477" fill-opacity="null" stroke-opacity="null" stroke-width="NaN" stroke="null" fill="none"/>
        <ellipse ry="5.762712" rx="22.711865" id="svg_37" cy="204.406775" cx="111.966105" fill-opacity="null" stroke-opacity="null" stroke-width="NaN" stroke="null" fill="none"/>
        <ellipse ry="16.271187" rx="33.559323" id="svg_38" cy="171.864402" cx="101.118647" fill-opacity="null" stroke-opacity="null" stroke-width="NaN" stroke="null" fill="none"/>
        <ellipse ry="1.186441" rx="1.186441" id="svg_39" cy="218.135589" cx="144.000003" fill-opacity="null" stroke-opacity="null" stroke-width="NaN" stroke="null" fill="none"/>
        <ellipse ry="0.508475" rx="0.169492" id="svg_40" cy="208.983047" cx="102.983054" fill-opacity="null" stroke-opacity="null" stroke-width="NaN" stroke="null" fill="none"/>
        <ellipse stroke="null" ry="26.779675" rx="16.271187" id="svg_41" cy="201.694918" cx="112.983054" fill-opacity="null" stroke-opacity="null" stroke-width="NaN" fill="none"/>
        <text xml:space="preserve" text-anchor="start" font-family="'Palatino Linotype', 'Book Antiqua', Palatino, serif" font-size="39" id="svg_42" y="296.610167" x="114.050847" fill-opacity="null" stroke-opacity="null" stroke-width="0" stroke="null" fill="#000000">ТЕАТР ТЕНЕЙ</text>
    </g>
</svg>