<svg xmlns="http://www.w3.org/2000/svg"  viewBox="0 0 333333 333333" shape-rendering="geometricPrecision" text-rendering="geometricPrecision" image-rendering="optimizeQuality" fill-rule="evenodd" clip-rule="evenodd"><path d="M166667 0c92048 0 166667 74619 166667 166667s-74619 166667-166667 166667S0 258715 0 166667 74619 0 166667 0zm96817 116766c1399-4684 0-8150-6691-8150h-22200c-5656 0-8211 2980-9671 6265 0 0-11252 27492-27248 45374-5170 5170-7543 6812-10340 6812-1399 0-3528-1642-3528-6325v-43915c0-5657-1581-8150-6265-8150h-34852c-3527 0-5656 2615-5656 5109 0 5352 7968 6569 8820 21592v32662c0 7177-1278 8455-4136 8455-7542 0-25789-27614-36676-59242-2129-6144-4258-8637-9915-8637H72925c-6325 0-7602 2980-7602 6265 0 5900 7542 35034 35034 73535 18308 26337 44158 40569 67635 40569 14111 0 15814-3163 15814-8637v-19889c0-6326 1339-7603 5778-7603 3285 0 8941 1643 22079 14354 15023 15023 17517 21775 25971 21775h22200c6326 0 9489-3163 7664-9428-2007-6204-9184-15267-18734-25972-5170-6082-12894-12712-15266-15996-3285-4258-2372-6082 0-9853 0 0 27005-38076 29864-50970h122z" fill="#45668e"/></svg>